<svg xmlns="http://www.w3.org/2000/svg" width="96" height="96" viewBox="0 0 96 96">
  <defs>
    <style>
      .cls-1 {
        fill: #fff;
      }
    </style>
  </defs>
  <g id="kuar" transform="translate(6 6)">
    <rect id="Rectangle_1319" data-name="Rectangle 1319" class="cls-1" width="96" height="96" transform="translate(-6 -6)"/>
    <rect id="Rectangle_1320" data-name="Rectangle 1320" width="3" height="3" transform="translate(5 5)"/>
    <rect id="Rectangle_1321" data-name="Rectangle 1321" width="3" height="3" transform="translate(8 5)"/>
    <rect id="Rectangle_1322" data-name="Rectangle 1322" width="3" height="3" transform="translate(11 5)"/>
    <rect id="Rectangle_1323" data-name="Rectangle 1323" width="3" height="3" transform="translate(14 5)"/>
    <rect id="Rectangle_1324" data-name="Rectangle 1324" width="3" height="3" transform="translate(17 5)"/>
    <rect id="Rectangle_1325" data-name="Rectangle 1325" width="3" height="3" transform="translate(20 5)"/>
    <rect id="Rectangle_1326" data-name="Rectangle 1326" width="3" height="3" transform="translate(23 5)"/>
    <rect id="Rectangle_1327" data-name="Rectangle 1327" width="3" height="3" transform="translate(29 5)"/>
    <rect id="Rectangle_1328" data-name="Rectangle 1328" width="3" height="3" transform="translate(32 5)"/>
    <rect id="Rectangle_1329" data-name="Rectangle 1329" width="3" height="3" transform="translate(35 5)"/>
    <rect id="Rectangle_1330" data-name="Rectangle 1330" width="2" height="3" transform="translate(38 5)"/>
    <rect id="Rectangle_1331" data-name="Rectangle 1331" width="3" height="3" transform="translate(43 5)"/>
    <rect id="Rectangle_1332" data-name="Rectangle 1332" width="3" height="3" transform="translate(49 5)"/>
    <rect id="Rectangle_1333" data-name="Rectangle 1333" width="3" height="3" transform="translate(58 5)"/>
    <rect id="Rectangle_1334" data-name="Rectangle 1334" width="3" height="3" transform="translate(61 5)"/>
    <rect id="Rectangle_1335" data-name="Rectangle 1335" width="3" height="3" transform="translate(64 5)"/>
    <rect id="Rectangle_1336" data-name="Rectangle 1336" width="3" height="3" transform="translate(67 5)"/>
    <rect id="Rectangle_1337" data-name="Rectangle 1337" width="3" height="3" transform="translate(70 5)"/>
    <rect id="Rectangle_1338" data-name="Rectangle 1338" width="3" height="3" transform="translate(73 5)"/>
    <rect id="Rectangle_1339" data-name="Rectangle 1339" width="3" height="3" transform="translate(76 5)"/>
    <rect id="Rectangle_1340" data-name="Rectangle 1340" width="3" height="3" transform="translate(5 8)"/>
    <rect id="Rectangle_1341" data-name="Rectangle 1341" width="3" height="3" transform="translate(23 8)"/>
    <rect id="Rectangle_1342" data-name="Rectangle 1342" width="2" height="3" transform="translate(38 8)"/>
    <rect id="Rectangle_1343" data-name="Rectangle 1343" width="3" height="3" transform="translate(40 8)"/>
    <rect id="Rectangle_1344" data-name="Rectangle 1344" width="3" height="3" transform="translate(43 8)"/>
    <rect id="Rectangle_1345" data-name="Rectangle 1345" width="3" height="3" transform="translate(52 8)"/>
    <rect id="Rectangle_1346" data-name="Rectangle 1346" width="3" height="3" transform="translate(58 8)"/>
    <rect id="Rectangle_1347" data-name="Rectangle 1347" width="3" height="3" transform="translate(76 8)"/>
    <rect id="Rectangle_1348" data-name="Rectangle 1348" width="3" height="3" transform="translate(5 11)"/>
    <rect id="Rectangle_1349" data-name="Rectangle 1349" width="3" height="3" transform="translate(11 11)"/>
    <rect id="Rectangle_1350" data-name="Rectangle 1350" width="3" height="3" transform="translate(14 11)"/>
    <rect id="Rectangle_1351" data-name="Rectangle 1351" width="3" height="3" transform="translate(17 11)"/>
    <rect id="Rectangle_1352" data-name="Rectangle 1352" width="3" height="3" transform="translate(23 11)"/>
    <rect id="Rectangle_1353" data-name="Rectangle 1353" width="3" height="3" transform="translate(32 11)"/>
    <rect id="Rectangle_1354" data-name="Rectangle 1354" width="2" height="3" transform="translate(38 11)"/>
    <rect id="Rectangle_1355" data-name="Rectangle 1355" width="3" height="3" transform="translate(43 11)"/>
    <rect id="Rectangle_1356" data-name="Rectangle 1356" width="3" height="3" transform="translate(49 11)"/>
    <rect id="Rectangle_1357" data-name="Rectangle 1357" width="3" height="3" transform="translate(52 11)"/>
    <rect id="Rectangle_1358" data-name="Rectangle 1358" width="3" height="3" transform="translate(58 11)"/>
    <rect id="Rectangle_1359" data-name="Rectangle 1359" width="3" height="3" transform="translate(64 11)"/>
    <rect id="Rectangle_1360" data-name="Rectangle 1360" width="3" height="3" transform="translate(67 11)"/>
    <rect id="Rectangle_1361" data-name="Rectangle 1361" width="3" height="3" transform="translate(70 11)"/>
    <rect id="Rectangle_1362" data-name="Rectangle 1362" width="3" height="3" transform="translate(76 11)"/>
    <rect id="Rectangle_1363" data-name="Rectangle 1363" width="3" height="3" transform="translate(5 14)"/>
    <rect id="Rectangle_1364" data-name="Rectangle 1364" width="3" height="3" transform="translate(11 14)"/>
    <rect id="Rectangle_1365" data-name="Rectangle 1365" width="3" height="3" transform="translate(14 14)"/>
    <rect id="Rectangle_1366" data-name="Rectangle 1366" width="3" height="3" transform="translate(17 14)"/>
    <rect id="Rectangle_1367" data-name="Rectangle 1367" width="3" height="3" transform="translate(23 14)"/>
    <rect id="Rectangle_1368" data-name="Rectangle 1368" width="3" height="3" transform="translate(35 14)"/>
    <rect id="Rectangle_1369" data-name="Rectangle 1369" width="2" height="3" transform="translate(38 14)"/>
    <rect id="Rectangle_1370" data-name="Rectangle 1370" width="3" height="3" transform="translate(43 14)"/>
    <rect id="Rectangle_1371" data-name="Rectangle 1371" width="3" height="3" transform="translate(46 14)"/>
    <rect id="Rectangle_1372" data-name="Rectangle 1372" width="3" height="3" transform="translate(49 14)"/>
    <rect id="Rectangle_1373" data-name="Rectangle 1373" width="3" height="3" transform="translate(58 14)"/>
    <rect id="Rectangle_1374" data-name="Rectangle 1374" width="3" height="3" transform="translate(64 14)"/>
    <rect id="Rectangle_1375" data-name="Rectangle 1375" width="3" height="3" transform="translate(67 14)"/>
    <rect id="Rectangle_1376" data-name="Rectangle 1376" width="3" height="3" transform="translate(70 14)"/>
    <rect id="Rectangle_1377" data-name="Rectangle 1377" width="3" height="3" transform="translate(76 14)"/>
    <rect id="Rectangle_1378" data-name="Rectangle 1378" width="3" height="3" transform="translate(5 17)"/>
    <rect id="Rectangle_1379" data-name="Rectangle 1379" width="3" height="3" transform="translate(11 17)"/>
    <rect id="Rectangle_1380" data-name="Rectangle 1380" width="3" height="3" transform="translate(14 17)"/>
    <rect id="Rectangle_1381" data-name="Rectangle 1381" width="3" height="3" transform="translate(17 17)"/>
    <rect id="Rectangle_1382" data-name="Rectangle 1382" width="3" height="3" transform="translate(23 17)"/>
    <rect id="Rectangle_1383" data-name="Rectangle 1383" width="3" height="3" transform="translate(35 17)"/>
    <rect id="Rectangle_1384" data-name="Rectangle 1384" width="2" height="3" transform="translate(38 17)"/>
    <rect id="Rectangle_1385" data-name="Rectangle 1385" width="3" height="3" transform="translate(40 17)"/>
    <rect id="Rectangle_1386" data-name="Rectangle 1386" width="3" height="3" transform="translate(49 17)"/>
    <rect id="Rectangle_1387" data-name="Rectangle 1387" width="3" height="3" transform="translate(52 17)"/>
    <rect id="Rectangle_1388" data-name="Rectangle 1388" width="3" height="3" transform="translate(58 17)"/>
    <rect id="Rectangle_1389" data-name="Rectangle 1389" width="3" height="3" transform="translate(64 17)"/>
    <rect id="Rectangle_1390" data-name="Rectangle 1390" width="3" height="3" transform="translate(67 17)"/>
    <rect id="Rectangle_1391" data-name="Rectangle 1391" width="3" height="3" transform="translate(70 17)"/>
    <rect id="Rectangle_1392" data-name="Rectangle 1392" width="3" height="3" transform="translate(76 17)"/>
    <rect id="Rectangle_1393" data-name="Rectangle 1393" width="3" height="3" transform="translate(5 20)"/>
    <rect id="Rectangle_1394" data-name="Rectangle 1394" width="3" height="3" transform="translate(23 20)"/>
    <rect id="Rectangle_1395" data-name="Rectangle 1395" width="3" height="3" transform="translate(32 20)"/>
    <rect id="Rectangle_1396" data-name="Rectangle 1396" width="2" height="3" transform="translate(38 20)"/>
    <rect id="Rectangle_1397" data-name="Rectangle 1397" width="3" height="3" transform="translate(43 20)"/>
    <rect id="Rectangle_1398" data-name="Rectangle 1398" width="3" height="3" transform="translate(52 20)"/>
    <rect id="Rectangle_1399" data-name="Rectangle 1399" width="3" height="3" transform="translate(58 20)"/>
    <rect id="Rectangle_1400" data-name="Rectangle 1400" width="3" height="3" transform="translate(76 20)"/>
    <rect id="Rectangle_1401" data-name="Rectangle 1401" width="3" height="3" transform="translate(5 23)"/>
    <rect id="Rectangle_1402" data-name="Rectangle 1402" width="3" height="3" transform="translate(8 23)"/>
    <rect id="Rectangle_1403" data-name="Rectangle 1403" width="3" height="3" transform="translate(11 23)"/>
    <rect id="Rectangle_1404" data-name="Rectangle 1404" width="3" height="3" transform="translate(14 23)"/>
    <rect id="Rectangle_1405" data-name="Rectangle 1405" width="3" height="3" transform="translate(17 23)"/>
    <rect id="Rectangle_1406" data-name="Rectangle 1406" width="3" height="3" transform="translate(20 23)"/>
    <rect id="Rectangle_1407" data-name="Rectangle 1407" width="3" height="3" transform="translate(23 23)"/>
    <rect id="Rectangle_1408" data-name="Rectangle 1408" width="3" height="3" transform="translate(29 23)"/>
    <rect id="Rectangle_1409" data-name="Rectangle 1409" width="3" height="3" transform="translate(35 23)"/>
    <rect id="Rectangle_1410" data-name="Rectangle 1410" width="3" height="3" transform="translate(40 23)"/>
    <rect id="Rectangle_1411" data-name="Rectangle 1411" width="3" height="3" transform="translate(46 23)"/>
    <rect id="Rectangle_1412" data-name="Rectangle 1412" width="3" height="3" transform="translate(52 23)"/>
    <rect id="Rectangle_1413" data-name="Rectangle 1413" width="3" height="3" transform="translate(58 23)"/>
    <rect id="Rectangle_1414" data-name="Rectangle 1414" width="3" height="3" transform="translate(61 23)"/>
    <rect id="Rectangle_1415" data-name="Rectangle 1415" width="3" height="3" transform="translate(64 23)"/>
    <rect id="Rectangle_1416" data-name="Rectangle 1416" width="3" height="3" transform="translate(67 23)"/>
    <rect id="Rectangle_1417" data-name="Rectangle 1417" width="3" height="3" transform="translate(70 23)"/>
    <rect id="Rectangle_1418" data-name="Rectangle 1418" width="3" height="3" transform="translate(73 23)"/>
    <rect id="Rectangle_1419" data-name="Rectangle 1419" width="3" height="3" transform="translate(76 23)"/>
    <rect id="Rectangle_1420" data-name="Rectangle 1420" width="3" height="3" transform="translate(29 26)"/>
    <rect id="Rectangle_1421" data-name="Rectangle 1421" width="3" height="3" transform="translate(32 26)"/>
    <rect id="Rectangle_1422" data-name="Rectangle 1422" width="3" height="3" transform="translate(40 26)"/>
    <rect id="Rectangle_1423" data-name="Rectangle 1423" width="3" height="3" transform="translate(43 26)"/>
    <rect id="Rectangle_1424" data-name="Rectangle 1424" width="3" height="3" transform="translate(49 26)"/>
    <rect id="Rectangle_1425" data-name="Rectangle 1425" width="3" height="3" transform="translate(5 29)"/>
    <rect id="Rectangle_1426" data-name="Rectangle 1426" width="3" height="3" transform="translate(8 29)"/>
    <rect id="Rectangle_1427" data-name="Rectangle 1427" width="3" height="3" transform="translate(14 29)"/>
    <rect id="Rectangle_1428" data-name="Rectangle 1428" width="3" height="3" transform="translate(17 29)"/>
    <rect id="Rectangle_1429" data-name="Rectangle 1429" width="3" height="3" transform="translate(23 29)"/>
    <rect id="Rectangle_1430" data-name="Rectangle 1430" width="3" height="3" transform="translate(32 29)"/>
    <rect id="Rectangle_1431" data-name="Rectangle 1431" width="3" height="3" transform="translate(40 29)"/>
    <rect id="Rectangle_1432" data-name="Rectangle 1432" width="3" height="3" transform="translate(43 29)"/>
    <rect id="Rectangle_1433" data-name="Rectangle 1433" width="3" height="3" transform="translate(46 29)"/>
    <rect id="Rectangle_1434" data-name="Rectangle 1434" width="3" height="3" transform="translate(49 29)"/>
    <rect id="Rectangle_1435" data-name="Rectangle 1435" width="3" height="3" transform="translate(58 29)"/>
    <rect id="Rectangle_1436" data-name="Rectangle 1436" width="3" height="3" transform="translate(76 29)"/>
    <rect id="Rectangle_1437" data-name="Rectangle 1437" width="3" height="3" transform="translate(8 32)"/>
    <rect id="Rectangle_1438" data-name="Rectangle 1438" width="3" height="3" transform="translate(14 32)"/>
    <rect id="Rectangle_1439" data-name="Rectangle 1439" width="3" height="3" transform="translate(17 32)"/>
    <rect id="Rectangle_1440" data-name="Rectangle 1440" width="3" height="3" transform="translate(20 32)"/>
    <rect id="Rectangle_1441" data-name="Rectangle 1441" width="3" height="3" transform="translate(26 32)"/>
    <rect id="Rectangle_1442" data-name="Rectangle 1442" width="3" height="3" transform="translate(29 32)"/>
    <rect id="Rectangle_1443" data-name="Rectangle 1443" width="3" height="3" transform="translate(35 32)"/>
    <rect id="Rectangle_1444" data-name="Rectangle 1444" width="3" height="3" transform="translate(43 32)"/>
    <rect id="Rectangle_1445" data-name="Rectangle 1445" width="3" height="3" transform="translate(49 32)"/>
    <rect id="Rectangle_1446" data-name="Rectangle 1446" width="3" height="3" transform="translate(52 32)"/>
    <rect id="Rectangle_1447" data-name="Rectangle 1447" width="3" height="3" transform="translate(61 32)"/>
    <rect id="Rectangle_1448" data-name="Rectangle 1448" width="3" height="3" transform="translate(64 32)"/>
    <rect id="Rectangle_1449" data-name="Rectangle 1449" width="3" height="3" transform="translate(67 32)"/>
    <rect id="Rectangle_1450" data-name="Rectangle 1450" width="3" height="3" transform="translate(70 32)"/>
    <rect id="Rectangle_1451" data-name="Rectangle 1451" width="3" height="3" transform="translate(73 32)"/>
    <rect id="Rectangle_1452" data-name="Rectangle 1452" width="3" height="3" transform="translate(5 35)"/>
    <rect id="Rectangle_1453" data-name="Rectangle 1453" width="3" height="3" transform="translate(8 35)"/>
    <rect id="Rectangle_1454" data-name="Rectangle 1454" width="3" height="3" transform="translate(11 35)"/>
    <rect id="Rectangle_1455" data-name="Rectangle 1455" width="3" height="3" transform="translate(17 35)"/>
    <rect id="Rectangle_1456" data-name="Rectangle 1456" width="3" height="3" transform="translate(20 35)"/>
    <rect id="Rectangle_1457" data-name="Rectangle 1457" width="3" height="3" transform="translate(23 35)"/>
    <rect id="Rectangle_1458" data-name="Rectangle 1458" width="3" height="3" transform="translate(26 35)"/>
    <rect id="Rectangle_1459" data-name="Rectangle 1459" width="3" height="3" transform="translate(32 35)"/>
    <rect id="Rectangle_1460" data-name="Rectangle 1460" width="3" height="3" transform="translate(40 35)"/>
    <rect id="Rectangle_1461" data-name="Rectangle 1461" width="3" height="3" transform="translate(46 35)"/>
    <rect id="Rectangle_1462" data-name="Rectangle 1462" width="3" height="3" transform="translate(49 35)"/>
    <rect id="Rectangle_1463" data-name="Rectangle 1463" width="3" height="3" transform="translate(52 35)"/>
    <rect id="Rectangle_1464" data-name="Rectangle 1464" width="3" height="3" transform="translate(55 35)"/>
    <rect id="Rectangle_1465" data-name="Rectangle 1465" width="3" height="3" transform="translate(67 35)"/>
    <rect id="Rectangle_1466" data-name="Rectangle 1466" width="3" height="3" transform="translate(76 35)"/>
    <rect id="Rectangle_1467" data-name="Rectangle 1467" width="3" height="2" transform="translate(5 38)"/>
    <rect id="Rectangle_1468" data-name="Rectangle 1468" width="3" height="2" transform="translate(17 38)"/>
    <rect id="Rectangle_1469" data-name="Rectangle 1469" width="3" height="2" transform="translate(29 38)"/>
    <rect id="Rectangle_1470" data-name="Rectangle 1470" width="3" height="2" transform="translate(46 38)"/>
    <rect id="Rectangle_1471" data-name="Rectangle 1471" width="3" height="2" transform="translate(49 38)"/>
    <rect id="Rectangle_1472" data-name="Rectangle 1472" width="3" height="2" transform="translate(58 38)"/>
    <rect id="Rectangle_1473" data-name="Rectangle 1473" width="3" height="2" transform="translate(67 38)"/>
    <rect id="Rectangle_1474" data-name="Rectangle 1474" width="3" height="2" transform="translate(70 38)"/>
    <rect id="Rectangle_1475" data-name="Rectangle 1475" width="3" height="2" transform="translate(73 38)"/>
    <rect id="Rectangle_1476" data-name="Rectangle 1476" width="3" height="2" transform="translate(76 38)"/>
    <rect id="Rectangle_1477" data-name="Rectangle 1477" width="3" height="3" transform="translate(14 40)"/>
    <rect id="Rectangle_1478" data-name="Rectangle 1478" width="3" height="3" transform="translate(17 40)"/>
    <rect id="Rectangle_1479" data-name="Rectangle 1479" width="3" height="3" transform="translate(20 40)"/>
    <rect id="Rectangle_1480" data-name="Rectangle 1480" width="3" height="3" transform="translate(23 40)"/>
    <rect id="Rectangle_1481" data-name="Rectangle 1481" width="3" height="3" transform="translate(26 40)"/>
    <rect id="Rectangle_1482" data-name="Rectangle 1482" width="3" height="3" transform="translate(29 40)"/>
    <rect id="Rectangle_1483" data-name="Rectangle 1483" width="3" height="3" transform="translate(32 40)"/>
    <rect id="Rectangle_1484" data-name="Rectangle 1484" width="3" height="3" transform="translate(35 40)"/>
    <rect id="Rectangle_1485" data-name="Rectangle 1485" width="3" height="3" transform="translate(43 40)"/>
    <rect id="Rectangle_1486" data-name="Rectangle 1486" width="3" height="3" transform="translate(52 40)"/>
    <rect id="Rectangle_1487" data-name="Rectangle 1487" width="3" height="3" transform="translate(58 40)"/>
    <rect id="Rectangle_1488" data-name="Rectangle 1488" width="3" height="3" transform="translate(61 40)"/>
    <rect id="Rectangle_1489" data-name="Rectangle 1489" width="3" height="3" transform="translate(76 40)"/>
    <rect id="Rectangle_1490" data-name="Rectangle 1490" width="3" height="3" transform="translate(5 43)"/>
    <rect id="Rectangle_1491" data-name="Rectangle 1491" width="3" height="3" transform="translate(14 43)"/>
    <rect id="Rectangle_1492" data-name="Rectangle 1492" width="3" height="3" transform="translate(20 43)"/>
    <rect id="Rectangle_1493" data-name="Rectangle 1493" width="3" height="3" transform="translate(32 43)"/>
    <rect id="Rectangle_1494" data-name="Rectangle 1494" width="3" height="3" transform="translate(35 43)"/>
    <rect id="Rectangle_1495" data-name="Rectangle 1495" width="3" height="3" transform="translate(40 43)"/>
    <rect id="Rectangle_1496" data-name="Rectangle 1496" width="3" height="3" transform="translate(46 43)"/>
    <rect id="Rectangle_1497" data-name="Rectangle 1497" width="3" height="3" transform="translate(49 43)"/>
    <rect id="Rectangle_1498" data-name="Rectangle 1498" width="3" height="3" transform="translate(55 43)"/>
    <rect id="Rectangle_1499" data-name="Rectangle 1499" width="3" height="3" transform="translate(64 43)"/>
    <rect id="Rectangle_1500" data-name="Rectangle 1500" width="3" height="3" transform="translate(73 43)"/>
    <rect id="Rectangle_1501" data-name="Rectangle 1501" width="3" height="3" transform="translate(5 46)"/>
    <rect id="Rectangle_1502" data-name="Rectangle 1502" width="3" height="3" transform="translate(8 46)"/>
    <rect id="Rectangle_1503" data-name="Rectangle 1503" width="3" height="3" transform="translate(14 46)"/>
    <rect id="Rectangle_1504" data-name="Rectangle 1504" width="3" height="3" transform="translate(23 46)"/>
    <rect id="Rectangle_1505" data-name="Rectangle 1505" width="3" height="3" transform="translate(26 46)"/>
    <rect id="Rectangle_1506" data-name="Rectangle 1506" width="3" height="3" transform="translate(29 46)"/>
    <rect id="Rectangle_1507" data-name="Rectangle 1507" width="3" height="3" transform="translate(46 46)"/>
    <rect id="Rectangle_1508" data-name="Rectangle 1508" width="3" height="3" transform="translate(49 46)"/>
    <rect id="Rectangle_1509" data-name="Rectangle 1509" width="3" height="3" transform="translate(55 46)"/>
    <rect id="Rectangle_1510" data-name="Rectangle 1510" width="3" height="3" transform="translate(58 46)"/>
    <rect id="Rectangle_1511" data-name="Rectangle 1511" width="3" height="3" transform="translate(64 46)"/>
    <rect id="Rectangle_1512" data-name="Rectangle 1512" width="3" height="3" transform="translate(67 46)"/>
    <rect id="Rectangle_1513" data-name="Rectangle 1513" width="3" height="3" transform="translate(70 46)"/>
    <rect id="Rectangle_1514" data-name="Rectangle 1514" width="3" height="3" transform="translate(73 46)"/>
    <rect id="Rectangle_1515" data-name="Rectangle 1515" width="3" height="3" transform="translate(76 46)"/>
    <rect id="Rectangle_1516" data-name="Rectangle 1516" width="3" height="3" transform="translate(5 49)"/>
    <rect id="Rectangle_1517" data-name="Rectangle 1517" width="3" height="3" transform="translate(11 49)"/>
    <rect id="Rectangle_1518" data-name="Rectangle 1518" width="3" height="3" transform="translate(14 49)"/>
    <rect id="Rectangle_1519" data-name="Rectangle 1519" width="3" height="3" transform="translate(17 49)"/>
    <rect id="Rectangle_1520" data-name="Rectangle 1520" width="3" height="3" transform="translate(26 49)"/>
    <rect id="Rectangle_1521" data-name="Rectangle 1521" width="3" height="3" transform="translate(40 49)"/>
    <rect id="Rectangle_1522" data-name="Rectangle 1522" width="3" height="3" transform="translate(52 49)"/>
    <rect id="Rectangle_1523" data-name="Rectangle 1523" width="3" height="3" transform="translate(58 49)"/>
    <rect id="Rectangle_1524" data-name="Rectangle 1524" width="3" height="3" transform="translate(61 49)"/>
    <rect id="Rectangle_1525" data-name="Rectangle 1525" width="3" height="3" transform="translate(67 49)"/>
    <rect id="Rectangle_1526" data-name="Rectangle 1526" width="3" height="3" transform="translate(70 49)"/>
    <rect id="Rectangle_1527" data-name="Rectangle 1527" width="3" height="3" transform="translate(76 49)"/>
    <rect id="Rectangle_1528" data-name="Rectangle 1528" width="3" height="3" transform="translate(5 52)"/>
    <rect id="Rectangle_1529" data-name="Rectangle 1529" width="3" height="3" transform="translate(11 52)"/>
    <rect id="Rectangle_1530" data-name="Rectangle 1530" width="3" height="3" transform="translate(14 52)"/>
    <rect id="Rectangle_1531" data-name="Rectangle 1531" width="3" height="3" transform="translate(17 52)"/>
    <rect id="Rectangle_1532" data-name="Rectangle 1532" width="3" height="3" transform="translate(23 52)"/>
    <rect id="Rectangle_1533" data-name="Rectangle 1533" width="3" height="3" transform="translate(26 52)"/>
    <rect id="Rectangle_1534" data-name="Rectangle 1534" width="3" height="3" transform="translate(29 52)"/>
    <rect id="Rectangle_1535" data-name="Rectangle 1535" width="3" height="3" transform="translate(35 52)"/>
    <rect id="Rectangle_1536" data-name="Rectangle 1536" width="2" height="3" transform="translate(38 52)"/>
    <rect id="Rectangle_1537" data-name="Rectangle 1537" width="3" height="3" transform="translate(40 52)"/>
    <rect id="Rectangle_1538" data-name="Rectangle 1538" width="3" height="3" transform="translate(52 52)"/>
    <rect id="Rectangle_1539" data-name="Rectangle 1539" width="3" height="3" transform="translate(55 52)"/>
    <rect id="Rectangle_1540" data-name="Rectangle 1540" width="3" height="3" transform="translate(58 52)"/>
    <rect id="Rectangle_1541" data-name="Rectangle 1541" width="3" height="3" transform="translate(61 52)"/>
    <rect id="Rectangle_1542" data-name="Rectangle 1542" width="3" height="3" transform="translate(64 52)"/>
    <rect id="Rectangle_1543" data-name="Rectangle 1543" width="3" height="3" transform="translate(70 52)"/>
    <rect id="Rectangle_1544" data-name="Rectangle 1544" width="3" height="3" transform="translate(73 52)"/>
    <rect id="Rectangle_1545" data-name="Rectangle 1545" width="3" height="3" transform="translate(29 55)"/>
    <rect id="Rectangle_1546" data-name="Rectangle 1546" width="2" height="3" transform="translate(38 55)"/>
    <rect id="Rectangle_1547" data-name="Rectangle 1547" width="3" height="3" transform="translate(46 55)"/>
    <rect id="Rectangle_1548" data-name="Rectangle 1548" width="3" height="3" transform="translate(49 55)"/>
    <rect id="Rectangle_1549" data-name="Rectangle 1549" width="3" height="3" transform="translate(52 55)"/>
    <rect id="Rectangle_1550" data-name="Rectangle 1550" width="3" height="3" transform="translate(64 55)"/>
    <rect id="Rectangle_1551" data-name="Rectangle 1551" width="3" height="3" transform="translate(70 55)"/>
    <rect id="Rectangle_1552" data-name="Rectangle 1552" width="3" height="3" transform="translate(73 55)"/>
    <rect id="Rectangle_1553" data-name="Rectangle 1553" width="3" height="3" transform="translate(5 58)"/>
    <rect id="Rectangle_1554" data-name="Rectangle 1554" width="3" height="3" transform="translate(8 58)"/>
    <rect id="Rectangle_1555" data-name="Rectangle 1555" width="3" height="3" transform="translate(11 58)"/>
    <rect id="Rectangle_1556" data-name="Rectangle 1556" width="3" height="3" transform="translate(14 58)"/>
    <rect id="Rectangle_1557" data-name="Rectangle 1557" width="3" height="3" transform="translate(17 58)"/>
    <rect id="Rectangle_1558" data-name="Rectangle 1558" width="3" height="3" transform="translate(20 58)"/>
    <rect id="Rectangle_1559" data-name="Rectangle 1559" width="3" height="3" transform="translate(23 58)"/>
    <rect id="Rectangle_1560" data-name="Rectangle 1560" width="3" height="3" transform="translate(32 58)"/>
    <rect id="Rectangle_1561" data-name="Rectangle 1561" width="3" height="3" transform="translate(40 58)"/>
    <rect id="Rectangle_1562" data-name="Rectangle 1562" width="3" height="3" transform="translate(52 58)"/>
    <rect id="Rectangle_1563" data-name="Rectangle 1563" width="3" height="3" transform="translate(58 58)"/>
    <rect id="Rectangle_1564" data-name="Rectangle 1564" width="3" height="3" transform="translate(64 58)"/>
    <rect id="Rectangle_1565" data-name="Rectangle 1565" width="3" height="3" transform="translate(76 58)"/>
    <rect id="Rectangle_1566" data-name="Rectangle 1566" width="3" height="3" transform="translate(5 61)"/>
    <rect id="Rectangle_1567" data-name="Rectangle 1567" width="3" height="3" transform="translate(23 61)"/>
    <rect id="Rectangle_1568" data-name="Rectangle 1568" width="3" height="3" transform="translate(35 61)"/>
    <rect id="Rectangle_1569" data-name="Rectangle 1569" width="2" height="3" transform="translate(38 61)"/>
    <rect id="Rectangle_1570" data-name="Rectangle 1570" width="3" height="3" transform="translate(43 61)"/>
    <rect id="Rectangle_1571" data-name="Rectangle 1571" width="3" height="3" transform="translate(49 61)"/>
    <rect id="Rectangle_1572" data-name="Rectangle 1572" width="3" height="3" transform="translate(52 61)"/>
    <rect id="Rectangle_1573" data-name="Rectangle 1573" width="3" height="3" transform="translate(64 61)"/>
    <rect id="Rectangle_1574" data-name="Rectangle 1574" width="3" height="3" transform="translate(5 64)"/>
    <rect id="Rectangle_1575" data-name="Rectangle 1575" width="3" height="3" transform="translate(11 64)"/>
    <rect id="Rectangle_1576" data-name="Rectangle 1576" width="3" height="3" transform="translate(14 64)"/>
    <rect id="Rectangle_1577" data-name="Rectangle 1577" width="3" height="3" transform="translate(17 64)"/>
    <rect id="Rectangle_1578" data-name="Rectangle 1578" width="3" height="3" transform="translate(23 64)"/>
    <rect id="Rectangle_1579" data-name="Rectangle 1579" width="3" height="3" transform="translate(29 64)"/>
    <rect id="Rectangle_1580" data-name="Rectangle 1580" width="3" height="3" transform="translate(35 64)"/>
    <rect id="Rectangle_1581" data-name="Rectangle 1581" width="2" height="3" transform="translate(38 64)"/>
    <rect id="Rectangle_1582" data-name="Rectangle 1582" width="3" height="3" transform="translate(43 64)"/>
    <rect id="Rectangle_1583" data-name="Rectangle 1583" width="3" height="3" transform="translate(49 64)"/>
    <rect id="Rectangle_1584" data-name="Rectangle 1584" width="3" height="3" transform="translate(52 64)"/>
    <rect id="Rectangle_1585" data-name="Rectangle 1585" width="3" height="3" transform="translate(55 64)"/>
    <rect id="Rectangle_1586" data-name="Rectangle 1586" width="3" height="3" transform="translate(58 64)"/>
    <rect id="Rectangle_1587" data-name="Rectangle 1587" width="3" height="3" transform="translate(61 64)"/>
    <rect id="Rectangle_1588" data-name="Rectangle 1588" width="3" height="3" transform="translate(64 64)"/>
    <rect id="Rectangle_1589" data-name="Rectangle 1589" width="3" height="3" transform="translate(73 64)"/>
    <rect id="Rectangle_1590" data-name="Rectangle 1590" width="3" height="3" transform="translate(76 64)"/>
    <rect id="Rectangle_1591" data-name="Rectangle 1591" width="3" height="3" transform="translate(5 67)"/>
    <rect id="Rectangle_1592" data-name="Rectangle 1592" width="3" height="3" transform="translate(11 67)"/>
    <rect id="Rectangle_1593" data-name="Rectangle 1593" width="3" height="3" transform="translate(14 67)"/>
    <rect id="Rectangle_1594" data-name="Rectangle 1594" width="3" height="3" transform="translate(17 67)"/>
    <rect id="Rectangle_1595" data-name="Rectangle 1595" width="3" height="3" transform="translate(23 67)"/>
    <rect id="Rectangle_1596" data-name="Rectangle 1596" width="3" height="3" transform="translate(29 67)"/>
    <rect id="Rectangle_1597" data-name="Rectangle 1597" width="3" height="3" transform="translate(32 67)"/>
    <rect id="Rectangle_1598" data-name="Rectangle 1598" width="3" height="3" transform="translate(35 67)"/>
    <rect id="Rectangle_1599" data-name="Rectangle 1599" width="3" height="3" transform="translate(40 67)"/>
    <rect id="Rectangle_1600" data-name="Rectangle 1600" width="3" height="3" transform="translate(43 67)"/>
    <rect id="Rectangle_1601" data-name="Rectangle 1601" width="3" height="3" transform="translate(46 67)"/>
    <rect id="Rectangle_1602" data-name="Rectangle 1602" width="3" height="3" transform="translate(52 67)"/>
    <rect id="Rectangle_1603" data-name="Rectangle 1603" width="3" height="3" transform="translate(58 67)"/>
    <rect id="Rectangle_1604" data-name="Rectangle 1604" width="3" height="3" transform="translate(73 67)"/>
    <rect id="Rectangle_1605" data-name="Rectangle 1605" width="3" height="3" transform="translate(76 67)"/>
    <rect id="Rectangle_1606" data-name="Rectangle 1606" width="3" height="3" transform="translate(5 70)"/>
    <rect id="Rectangle_1607" data-name="Rectangle 1607" width="3" height="3" transform="translate(11 70)"/>
    <rect id="Rectangle_1608" data-name="Rectangle 1608" width="3" height="3" transform="translate(14 70)"/>
    <rect id="Rectangle_1609" data-name="Rectangle 1609" width="3" height="3" transform="translate(17 70)"/>
    <rect id="Rectangle_1610" data-name="Rectangle 1610" width="3" height="3" transform="translate(23 70)"/>
    <rect id="Rectangle_1611" data-name="Rectangle 1611" width="2" height="3" transform="translate(38 70)"/>
    <rect id="Rectangle_1612" data-name="Rectangle 1612" width="3" height="3" transform="translate(43 70)"/>
    <rect id="Rectangle_1613" data-name="Rectangle 1613" width="3" height="3" transform="translate(52 70)"/>
    <rect id="Rectangle_1614" data-name="Rectangle 1614" width="3" height="3" transform="translate(55 70)"/>
    <rect id="Rectangle_1615" data-name="Rectangle 1615" width="3" height="3" transform="translate(64 70)"/>
    <rect id="Rectangle_1616" data-name="Rectangle 1616" width="3" height="3" transform="translate(67 70)"/>
    <rect id="Rectangle_1617" data-name="Rectangle 1617" width="3" height="3" transform="translate(70 70)"/>
    <rect id="Rectangle_1618" data-name="Rectangle 1618" width="3" height="3" transform="translate(73 70)"/>
    <rect id="Rectangle_1619" data-name="Rectangle 1619" width="3" height="3" transform="translate(76 70)"/>
    <rect id="Rectangle_1620" data-name="Rectangle 1620" width="3" height="3" transform="translate(5 73)"/>
    <rect id="Rectangle_1621" data-name="Rectangle 1621" width="3" height="3" transform="translate(23 73)"/>
    <rect id="Rectangle_1622" data-name="Rectangle 1622" width="3" height="3" transform="translate(29 73)"/>
    <rect id="Rectangle_1623" data-name="Rectangle 1623" width="3" height="3" transform="translate(35 73)"/>
    <rect id="Rectangle_1624" data-name="Rectangle 1624" width="2" height="3" transform="translate(38 73)"/>
    <rect id="Rectangle_1625" data-name="Rectangle 1625" width="3" height="3" transform="translate(40 73)"/>
    <rect id="Rectangle_1626" data-name="Rectangle 1626" width="3" height="3" transform="translate(43 73)"/>
    <rect id="Rectangle_1627" data-name="Rectangle 1627" width="3" height="3" transform="translate(61 73)"/>
    <rect id="Rectangle_1628" data-name="Rectangle 1628" width="3" height="3" transform="translate(64 73)"/>
    <rect id="Rectangle_1629" data-name="Rectangle 1629" width="3" height="3" transform="translate(70 73)"/>
    <rect id="Rectangle_1630" data-name="Rectangle 1630" width="3" height="3" transform="translate(73 73)"/>
    <rect id="Rectangle_1631" data-name="Rectangle 1631" width="3" height="3" transform="translate(76 73)"/>
    <rect id="Rectangle_1632" data-name="Rectangle 1632" width="3" height="3" transform="translate(5 76)"/>
    <rect id="Rectangle_1633" data-name="Rectangle 1633" width="3" height="3" transform="translate(8 76)"/>
    <rect id="Rectangle_1634" data-name="Rectangle 1634" width="3" height="3" transform="translate(11 76)"/>
    <rect id="Rectangle_1635" data-name="Rectangle 1635" width="3" height="3" transform="translate(14 76)"/>
    <rect id="Rectangle_1636" data-name="Rectangle 1636" width="3" height="3" transform="translate(17 76)"/>
    <rect id="Rectangle_1637" data-name="Rectangle 1637" width="3" height="3" transform="translate(20 76)"/>
    <rect id="Rectangle_1638" data-name="Rectangle 1638" width="3" height="3" transform="translate(23 76)"/>
    <rect id="Rectangle_1639" data-name="Rectangle 1639" width="3" height="3" transform="translate(29 76)"/>
    <rect id="Rectangle_1640" data-name="Rectangle 1640" width="3" height="3" transform="translate(35 76)"/>
    <rect id="Rectangle_1641" data-name="Rectangle 1641" width="2" height="3" transform="translate(38 76)"/>
    <rect id="Rectangle_1642" data-name="Rectangle 1642" width="3" height="3" transform="translate(40 76)"/>
    <rect id="Rectangle_1643" data-name="Rectangle 1643" width="3" height="3" transform="translate(43 76)"/>
    <rect id="Rectangle_1644" data-name="Rectangle 1644" width="3" height="3" transform="translate(52 76)"/>
    <rect id="Rectangle_1645" data-name="Rectangle 1645" width="3" height="3" transform="translate(55 76)"/>
    <rect id="Rectangle_1646" data-name="Rectangle 1646" width="3" height="3" transform="translate(67 76)"/>
    <rect id="Rectangle_1647" data-name="Rectangle 1647" width="3" height="3" transform="translate(76 76)"/>
  </g>
</svg>
